<mxfile host="app.diagrams.net" modified="2023-04-03T09:04:40.882Z" agent="5.0 (Macintosh; Intel Mac OS X 10_15_7) AppleWebKit/537.36 (KHTML, like Gecko) Chrome/111.0.0.0 Safari/537.36" etag="qIQDOtplH3YHNm26PO6L" version="15.5.4" type="github" pages="2">
  <diagram id="R2lEEEUBdFMjLlhIrx00" name="Page-1">
    <mxGraphModel dx="946" dy="614" grid="0" gridSize="10" guides="1" tooltips="1" connect="1" arrows="1" fold="1" page="1" pageScale="1" pageWidth="850" pageHeight="1100" background="none" math="0" shadow="0" extFonts="Permanent Marker^https://fonts.googleapis.com/css?family=Permanent+Marker">
      <root>
        <mxCell id="0" />
        <mxCell id="1" parent="0" />
        <mxCell id="C-vyLk0tnHw3VtMMgP7b-1" value="" style="edgeStyle=entityRelationEdgeStyle;endArrow=ERzeroToMany;startArrow=ERone;endFill=1;startFill=0;" parent="1" source="C-vyLk0tnHw3VtMMgP7b-24" target="C-vyLk0tnHw3VtMMgP7b-6" edge="1">
          <mxGeometry width="100" height="100" relative="1" as="geometry">
            <mxPoint x="340" y="720" as="sourcePoint" />
            <mxPoint x="440" y="620" as="targetPoint" />
          </mxGeometry>
        </mxCell>
        <mxCell id="C-vyLk0tnHw3VtMMgP7b-12" value="" style="edgeStyle=entityRelationEdgeStyle;endArrow=ERzeroToMany;startArrow=ERone;endFill=1;startFill=0;" parent="1" source="C-vyLk0tnHw3VtMMgP7b-3" target="C-vyLk0tnHw3VtMMgP7b-17" edge="1">
          <mxGeometry width="100" height="100" relative="1" as="geometry">
            <mxPoint x="400" y="180" as="sourcePoint" />
            <mxPoint x="460" y="205" as="targetPoint" />
          </mxGeometry>
        </mxCell>
        <mxCell id="C-vyLk0tnHw3VtMMgP7b-2" value="Orders" style="shape=table;startSize=30;container=1;collapsible=1;childLayout=tableLayout;fixedRows=1;rowLines=0;fontStyle=1;align=center;resizeLast=1;" parent="1" vertex="1">
          <mxGeometry x="450" y="120" width="250" height="130" as="geometry" />
        </mxCell>
        <mxCell id="C-vyLk0tnHw3VtMMgP7b-3" value="" style="shape=partialRectangle;collapsible=0;dropTarget=0;pointerEvents=0;fillColor=none;points=[[0,0.5],[1,0.5]];portConstraint=eastwest;top=0;left=0;right=0;bottom=1;" parent="C-vyLk0tnHw3VtMMgP7b-2" vertex="1">
          <mxGeometry y="30" width="250" height="30" as="geometry" />
        </mxCell>
        <mxCell id="C-vyLk0tnHw3VtMMgP7b-4" value="PK" style="shape=partialRectangle;overflow=hidden;connectable=0;fillColor=none;top=0;left=0;bottom=0;right=0;fontStyle=1;" parent="C-vyLk0tnHw3VtMMgP7b-3" vertex="1">
          <mxGeometry width="30" height="30" as="geometry" />
        </mxCell>
        <mxCell id="C-vyLk0tnHw3VtMMgP7b-5" value="order_id int NOT NULL " style="shape=partialRectangle;overflow=hidden;connectable=0;fillColor=none;top=0;left=0;bottom=0;right=0;align=left;spacingLeft=6;fontStyle=5;" parent="C-vyLk0tnHw3VtMMgP7b-3" vertex="1">
          <mxGeometry x="30" width="220" height="30" as="geometry" />
        </mxCell>
        <mxCell id="C-vyLk0tnHw3VtMMgP7b-6" value="" style="shape=partialRectangle;collapsible=0;dropTarget=0;pointerEvents=0;fillColor=none;points=[[0,0.5],[1,0.5]];portConstraint=eastwest;top=0;left=0;right=0;bottom=0;" parent="C-vyLk0tnHw3VtMMgP7b-2" vertex="1">
          <mxGeometry y="60" width="250" height="30" as="geometry" />
        </mxCell>
        <mxCell id="C-vyLk0tnHw3VtMMgP7b-7" value="FK1" style="shape=partialRectangle;overflow=hidden;connectable=0;fillColor=none;top=0;left=0;bottom=0;right=0;" parent="C-vyLk0tnHw3VtMMgP7b-6" vertex="1">
          <mxGeometry width="30" height="30" as="geometry" />
        </mxCell>
        <mxCell id="C-vyLk0tnHw3VtMMgP7b-8" value="customer_id int NOT NULL" style="shape=partialRectangle;overflow=hidden;connectable=0;fillColor=none;top=0;left=0;bottom=0;right=0;align=left;spacingLeft=6;" parent="C-vyLk0tnHw3VtMMgP7b-6" vertex="1">
          <mxGeometry x="30" width="220" height="30" as="geometry" />
        </mxCell>
        <mxCell id="C-vyLk0tnHw3VtMMgP7b-9" value="" style="shape=partialRectangle;collapsible=0;dropTarget=0;pointerEvents=0;fillColor=none;points=[[0,0.5],[1,0.5]];portConstraint=eastwest;top=0;left=0;right=0;bottom=0;" parent="C-vyLk0tnHw3VtMMgP7b-2" vertex="1">
          <mxGeometry y="90" width="250" height="30" as="geometry" />
        </mxCell>
        <mxCell id="C-vyLk0tnHw3VtMMgP7b-10" value="" style="shape=partialRectangle;overflow=hidden;connectable=0;fillColor=none;top=0;left=0;bottom=0;right=0;" parent="C-vyLk0tnHw3VtMMgP7b-9" vertex="1">
          <mxGeometry width="30" height="30" as="geometry" />
        </mxCell>
        <mxCell id="C-vyLk0tnHw3VtMMgP7b-11" value="order_date date NOT NULL" style="shape=partialRectangle;overflow=hidden;connectable=0;fillColor=none;top=0;left=0;bottom=0;right=0;align=left;spacingLeft=6;" parent="C-vyLk0tnHw3VtMMgP7b-9" vertex="1">
          <mxGeometry x="30" width="220" height="30" as="geometry" />
        </mxCell>
        <mxCell id="C-vyLk0tnHw3VtMMgP7b-13" value="Shipments" style="shape=table;startSize=30;container=1;collapsible=1;childLayout=tableLayout;fixedRows=1;rowLines=0;fontStyle=1;align=center;resizeLast=1;" parent="1" vertex="1">
          <mxGeometry x="450" y="280" width="250" height="130" as="geometry" />
        </mxCell>
        <mxCell id="C-vyLk0tnHw3VtMMgP7b-14" value="" style="shape=partialRectangle;collapsible=0;dropTarget=0;pointerEvents=0;fillColor=none;points=[[0,0.5],[1,0.5]];portConstraint=eastwest;top=0;left=0;right=0;bottom=1;" parent="C-vyLk0tnHw3VtMMgP7b-13" vertex="1">
          <mxGeometry y="30" width="250" height="30" as="geometry" />
        </mxCell>
        <mxCell id="C-vyLk0tnHw3VtMMgP7b-15" value="PK" style="shape=partialRectangle;overflow=hidden;connectable=0;fillColor=none;top=0;left=0;bottom=0;right=0;fontStyle=1;" parent="C-vyLk0tnHw3VtMMgP7b-14" vertex="1">
          <mxGeometry width="30" height="30" as="geometry" />
        </mxCell>
        <mxCell id="C-vyLk0tnHw3VtMMgP7b-16" value="shipment_id int NOT NULL " style="shape=partialRectangle;overflow=hidden;connectable=0;fillColor=none;top=0;left=0;bottom=0;right=0;align=left;spacingLeft=6;fontStyle=5;" parent="C-vyLk0tnHw3VtMMgP7b-14" vertex="1">
          <mxGeometry x="30" width="220" height="30" as="geometry" />
        </mxCell>
        <mxCell id="C-vyLk0tnHw3VtMMgP7b-17" value="" style="shape=partialRectangle;collapsible=0;dropTarget=0;pointerEvents=0;fillColor=none;points=[[0,0.5],[1,0.5]];portConstraint=eastwest;top=0;left=0;right=0;bottom=0;" parent="C-vyLk0tnHw3VtMMgP7b-13" vertex="1">
          <mxGeometry y="60" width="250" height="30" as="geometry" />
        </mxCell>
        <mxCell id="C-vyLk0tnHw3VtMMgP7b-18" value="FK1" style="shape=partialRectangle;overflow=hidden;connectable=0;fillColor=none;top=0;left=0;bottom=0;right=0;" parent="C-vyLk0tnHw3VtMMgP7b-17" vertex="1">
          <mxGeometry width="30" height="30" as="geometry" />
        </mxCell>
        <mxCell id="C-vyLk0tnHw3VtMMgP7b-19" value="order_id int NOT NULL" style="shape=partialRectangle;overflow=hidden;connectable=0;fillColor=none;top=0;left=0;bottom=0;right=0;align=left;spacingLeft=6;" parent="C-vyLk0tnHw3VtMMgP7b-17" vertex="1">
          <mxGeometry x="30" width="220" height="30" as="geometry" />
        </mxCell>
        <mxCell id="C-vyLk0tnHw3VtMMgP7b-20" value="" style="shape=partialRectangle;collapsible=0;dropTarget=0;pointerEvents=0;fillColor=none;points=[[0,0.5],[1,0.5]];portConstraint=eastwest;top=0;left=0;right=0;bottom=0;" parent="C-vyLk0tnHw3VtMMgP7b-13" vertex="1">
          <mxGeometry y="90" width="250" height="30" as="geometry" />
        </mxCell>
        <mxCell id="C-vyLk0tnHw3VtMMgP7b-21" value="" style="shape=partialRectangle;overflow=hidden;connectable=0;fillColor=none;top=0;left=0;bottom=0;right=0;" parent="C-vyLk0tnHw3VtMMgP7b-20" vertex="1">
          <mxGeometry width="30" height="30" as="geometry" />
        </mxCell>
        <mxCell id="C-vyLk0tnHw3VtMMgP7b-22" value="shipment_date date NOT NULL" style="shape=partialRectangle;overflow=hidden;connectable=0;fillColor=none;top=0;left=0;bottom=0;right=0;align=left;spacingLeft=6;" parent="C-vyLk0tnHw3VtMMgP7b-20" vertex="1">
          <mxGeometry x="30" width="220" height="30" as="geometry" />
        </mxCell>
        <mxCell id="C-vyLk0tnHw3VtMMgP7b-23" value="Customers" style="shape=table;startSize=30;container=1;collapsible=1;childLayout=tableLayout;fixedRows=1;rowLines=0;fontStyle=1;align=center;resizeLast=1;" parent="1" vertex="1">
          <mxGeometry x="120" y="120" width="250" height="100" as="geometry" />
        </mxCell>
        <mxCell id="C-vyLk0tnHw3VtMMgP7b-24" value="" style="shape=partialRectangle;collapsible=0;dropTarget=0;pointerEvents=0;fillColor=none;points=[[0,0.5],[1,0.5]];portConstraint=eastwest;top=0;left=0;right=0;bottom=1;" parent="C-vyLk0tnHw3VtMMgP7b-23" vertex="1">
          <mxGeometry y="30" width="250" height="30" as="geometry" />
        </mxCell>
        <mxCell id="C-vyLk0tnHw3VtMMgP7b-25" value="PK" style="shape=partialRectangle;overflow=hidden;connectable=0;fillColor=none;top=0;left=0;bottom=0;right=0;fontStyle=1;" parent="C-vyLk0tnHw3VtMMgP7b-24" vertex="1">
          <mxGeometry width="30" height="30" as="geometry" />
        </mxCell>
        <mxCell id="C-vyLk0tnHw3VtMMgP7b-26" value="customer_id int NOT NULL " style="shape=partialRectangle;overflow=hidden;connectable=0;fillColor=none;top=0;left=0;bottom=0;right=0;align=left;spacingLeft=6;fontStyle=5;" parent="C-vyLk0tnHw3VtMMgP7b-24" vertex="1">
          <mxGeometry x="30" width="220" height="30" as="geometry" />
        </mxCell>
        <mxCell id="C-vyLk0tnHw3VtMMgP7b-27" value="" style="shape=partialRectangle;collapsible=0;dropTarget=0;pointerEvents=0;fillColor=none;points=[[0,0.5],[1,0.5]];portConstraint=eastwest;top=0;left=0;right=0;bottom=0;" parent="C-vyLk0tnHw3VtMMgP7b-23" vertex="1">
          <mxGeometry y="60" width="250" height="30" as="geometry" />
        </mxCell>
        <mxCell id="C-vyLk0tnHw3VtMMgP7b-28" value="" style="shape=partialRectangle;overflow=hidden;connectable=0;fillColor=none;top=0;left=0;bottom=0;right=0;" parent="C-vyLk0tnHw3VtMMgP7b-27" vertex="1">
          <mxGeometry width="30" height="30" as="geometry" />
        </mxCell>
        <mxCell id="C-vyLk0tnHw3VtMMgP7b-29" value="customer_name char(50) NOT NULL" style="shape=partialRectangle;overflow=hidden;connectable=0;fillColor=none;top=0;left=0;bottom=0;right=0;align=left;spacingLeft=6;" parent="C-vyLk0tnHw3VtMMgP7b-27" vertex="1">
          <mxGeometry x="30" width="220" height="30" as="geometry" />
        </mxCell>
      </root>
    </mxGraphModel>
  </diagram>
  <diagram id="mgVKaN6H236lGDlR-gph" name="第 2 页">
    <mxGraphModel dx="652" dy="423" grid="0" gridSize="10" guides="1" tooltips="1" connect="1" arrows="1" fold="1" page="1" pageScale="1" pageWidth="827" pageHeight="1169" math="0" shadow="0">
      <root>
        <mxCell id="589v4N3QRyum2xQa7Uxw-0" />
        <mxCell id="589v4N3QRyum2xQa7Uxw-1" parent="589v4N3QRyum2xQa7Uxw-0" />
        <mxCell id="589v4N3QRyum2xQa7Uxw-2" value="国" style="whiteSpace=wrap;html=1;aspect=fixed;" vertex="1" parent="589v4N3QRyum2xQa7Uxw-1">
          <mxGeometry x="195" y="558" width="27" height="27" as="geometry" />
        </mxCell>
        <mxCell id="589v4N3QRyum2xQa7Uxw-3" value="语" style="whiteSpace=wrap;html=1;aspect=fixed;" vertex="1" parent="589v4N3QRyum2xQa7Uxw-1">
          <mxGeometry x="227" y="558" width="27" height="27" as="geometry" />
        </mxCell>
        <mxCell id="589v4N3QRyum2xQa7Uxw-4" value="&amp;nbsp;中" style="whiteSpace=wrap;html=1;aspect=fixed;" vertex="1" parent="589v4N3QRyum2xQa7Uxw-1">
          <mxGeometry x="164" y="558" width="27" height="27" as="geometry" />
        </mxCell>
        <mxCell id="589v4N3QRyum2xQa7Uxw-5" value="言" style="whiteSpace=wrap;html=1;aspect=fixed;" vertex="1" parent="589v4N3QRyum2xQa7Uxw-1">
          <mxGeometry x="258" y="558" width="27" height="27" as="geometry" />
        </mxCell>
        <mxCell id="589v4N3QRyum2xQa7Uxw-6" value="学" style="whiteSpace=wrap;html=1;aspect=fixed;" vertex="1" parent="589v4N3QRyum2xQa7Uxw-1">
          <mxGeometry x="290" y="558" width="27" height="27" as="geometry" />
        </mxCell>
        <mxCell id="589v4N3QRyum2xQa7Uxw-7" value="" style="whiteSpace=wrap;html=1;aspect=fixed;" vertex="1" parent="589v4N3QRyum2xQa7Uxw-1">
          <mxGeometry x="281" y="442" width="16" height="16" as="geometry" />
        </mxCell>
        <mxCell id="589v4N3QRyum2xQa7Uxw-12" value="中国语言学" style="rounded=1;whiteSpace=wrap;html=1;" vertex="1" parent="589v4N3QRyum2xQa7Uxw-1">
          <mxGeometry x="164" y="601" width="153" height="30" as="geometry" />
        </mxCell>
        <mxCell id="589v4N3QRyum2xQa7Uxw-13" value="中国、语言学、中国语、言、学、语言、中、国语..." style="rounded=1;whiteSpace=wrap;html=1;" vertex="1" parent="589v4N3QRyum2xQa7Uxw-1">
          <mxGeometry x="355.5" y="655" width="147" height="78" as="geometry" />
        </mxCell>
        <mxCell id="589v4N3QRyum2xQa7Uxw-14" value="TOPKSW算法" style="ellipse;whiteSpace=wrap;html=1;" vertex="1" parent="589v4N3QRyum2xQa7Uxw-1">
          <mxGeometry x="375" y="601" width="95" height="40" as="geometry" />
        </mxCell>
        <mxCell id="589v4N3QRyum2xQa7Uxw-15" value="BERT" style="rounded=0;whiteSpace=wrap;html=1;" vertex="1" parent="589v4N3QRyum2xQa7Uxw-1">
          <mxGeometry x="164" y="497" width="152" height="44" as="geometry" />
        </mxCell>
        <mxCell id="589v4N3QRyum2xQa7Uxw-24" value="" style="whiteSpace=wrap;html=1;aspect=fixed;" vertex="1" parent="589v4N3QRyum2xQa7Uxw-1">
          <mxGeometry x="281" y="421" width="16" height="16" as="geometry" />
        </mxCell>
        <mxCell id="589v4N3QRyum2xQa7Uxw-25" value="" style="whiteSpace=wrap;html=1;aspect=fixed;" vertex="1" parent="589v4N3QRyum2xQa7Uxw-1">
          <mxGeometry x="321" y="442" width="16" height="16" as="geometry" />
        </mxCell>
        <mxCell id="589v4N3QRyum2xQa7Uxw-26" value="" style="whiteSpace=wrap;html=1;aspect=fixed;" vertex="1" parent="589v4N3QRyum2xQa7Uxw-1">
          <mxGeometry x="301" y="442" width="16" height="16" as="geometry" />
        </mxCell>
        <mxCell id="589v4N3QRyum2xQa7Uxw-27" value="" style="whiteSpace=wrap;html=1;aspect=fixed;" vertex="1" parent="589v4N3QRyum2xQa7Uxw-1">
          <mxGeometry x="321" y="421" width="16" height="16" as="geometry" />
        </mxCell>
        <mxCell id="589v4N3QRyum2xQa7Uxw-28" value="" style="whiteSpace=wrap;html=1;aspect=fixed;" vertex="1" parent="589v4N3QRyum2xQa7Uxw-1">
          <mxGeometry x="301" y="400" width="16" height="16" as="geometry" />
        </mxCell>
        <mxCell id="589v4N3QRyum2xQa7Uxw-29" value="" style="whiteSpace=wrap;html=1;aspect=fixed;" vertex="1" parent="589v4N3QRyum2xQa7Uxw-1">
          <mxGeometry x="301" y="421" width="16" height="16" as="geometry" />
        </mxCell>
        <mxCell id="589v4N3QRyum2xQa7Uxw-30" value="" style="whiteSpace=wrap;html=1;aspect=fixed;" vertex="1" parent="589v4N3QRyum2xQa7Uxw-1">
          <mxGeometry x="281" y="400" width="16" height="16" as="geometry" />
        </mxCell>
        <mxCell id="589v4N3QRyum2xQa7Uxw-33" value="" style="whiteSpace=wrap;html=1;aspect=fixed;" vertex="1" parent="589v4N3QRyum2xQa7Uxw-1">
          <mxGeometry x="321" y="400" width="16" height="16" as="geometry" />
        </mxCell>
        <mxCell id="589v4N3QRyum2xQa7Uxw-34" value="" style="whiteSpace=wrap;html=1;aspect=fixed;" vertex="1" parent="589v4N3QRyum2xQa7Uxw-1">
          <mxGeometry x="712" y="509" width="16" height="16" as="geometry" />
        </mxCell>
        <mxCell id="589v4N3QRyum2xQa7Uxw-35" value="" style="whiteSpace=wrap;html=1;aspect=fixed;" vertex="1" parent="589v4N3QRyum2xQa7Uxw-1">
          <mxGeometry x="232" y="475" width="16" height="16" as="geometry" />
        </mxCell>
        <mxCell id="589v4N3QRyum2xQa7Uxw-36" value="" style="whiteSpace=wrap;html=1;aspect=fixed;" vertex="1" parent="589v4N3QRyum2xQa7Uxw-1">
          <mxGeometry x="361" y="400" width="16" height="16" as="geometry" />
        </mxCell>
        <mxCell id="589v4N3QRyum2xQa7Uxw-37" value="" style="whiteSpace=wrap;html=1;aspect=fixed;" vertex="1" parent="589v4N3QRyum2xQa7Uxw-1">
          <mxGeometry x="361" y="442" width="16" height="16" as="geometry" />
        </mxCell>
        <mxCell id="589v4N3QRyum2xQa7Uxw-38" value="" style="whiteSpace=wrap;html=1;aspect=fixed;" vertex="1" parent="589v4N3QRyum2xQa7Uxw-1">
          <mxGeometry x="341" y="442" width="16" height="16" as="geometry" />
        </mxCell>
        <mxCell id="589v4N3QRyum2xQa7Uxw-44" value="" style="whiteSpace=wrap;html=1;aspect=fixed;" vertex="1" parent="589v4N3QRyum2xQa7Uxw-1">
          <mxGeometry x="341" y="400" width="16" height="16" as="geometry" />
        </mxCell>
        <mxCell id="589v4N3QRyum2xQa7Uxw-45" value="" style="whiteSpace=wrap;html=1;aspect=fixed;" vertex="1" parent="589v4N3QRyum2xQa7Uxw-1">
          <mxGeometry x="341" y="421" width="16" height="16" as="geometry" />
        </mxCell>
        <mxCell id="589v4N3QRyum2xQa7Uxw-51" value="" style="whiteSpace=wrap;html=1;aspect=fixed;" vertex="1" parent="589v4N3QRyum2xQa7Uxw-1">
          <mxGeometry x="361" y="421" width="16" height="16" as="geometry" />
        </mxCell>
        <mxCell id="589v4N3QRyum2xQa7Uxw-52" value="" style="whiteSpace=wrap;html=1;aspect=fixed;" vertex="1" parent="589v4N3QRyum2xQa7Uxw-1">
          <mxGeometry x="200.5" y="475" width="16" height="16" as="geometry" />
        </mxCell>
        <mxCell id="589v4N3QRyum2xQa7Uxw-53" value="" style="whiteSpace=wrap;html=1;aspect=fixed;" vertex="1" parent="589v4N3QRyum2xQa7Uxw-1">
          <mxGeometry x="167" y="475" width="16" height="16" as="geometry" />
        </mxCell>
        <mxCell id="589v4N3QRyum2xQa7Uxw-59" value="" style="whiteSpace=wrap;html=1;aspect=fixed;" vertex="1" parent="589v4N3QRyum2xQa7Uxw-1">
          <mxGeometry x="343.5" y="558" width="12" height="12" as="geometry" />
        </mxCell>
        <mxCell id="589v4N3QRyum2xQa7Uxw-61" value="" style="whiteSpace=wrap;html=1;aspect=fixed;" vertex="1" parent="589v4N3QRyum2xQa7Uxw-1">
          <mxGeometry x="343.5" y="573" width="12" height="12" as="geometry" />
        </mxCell>
        <mxCell id="589v4N3QRyum2xQa7Uxw-62" value="" style="whiteSpace=wrap;html=1;aspect=fixed;" vertex="1" parent="589v4N3QRyum2xQa7Uxw-1">
          <mxGeometry x="378" y="573" width="12" height="12" as="geometry" />
        </mxCell>
        <mxCell id="589v4N3QRyum2xQa7Uxw-72" value="Self-Attention" style="rounded=0;whiteSpace=wrap;html=1;" vertex="1" parent="589v4N3QRyum2xQa7Uxw-1">
          <mxGeometry x="343.5" y="497" width="152" height="44" as="geometry" />
        </mxCell>
        <mxCell id="589v4N3QRyum2xQa7Uxw-83" value="" style="whiteSpace=wrap;html=1;aspect=fixed;" vertex="1" parent="589v4N3QRyum2xQa7Uxw-1">
          <mxGeometry x="378" y="558" width="12" height="12" as="geometry" />
        </mxCell>
        <mxCell id="589v4N3QRyum2xQa7Uxw-86" value="" style="whiteSpace=wrap;html=1;aspect=fixed;" vertex="1" parent="589v4N3QRyum2xQa7Uxw-1">
          <mxGeometry x="263.5" y="475" width="16" height="16" as="geometry" />
        </mxCell>
        <mxCell id="589v4N3QRyum2xQa7Uxw-87" value="" style="whiteSpace=wrap;html=1;aspect=fixed;" vertex="1" parent="589v4N3QRyum2xQa7Uxw-1">
          <mxGeometry x="295.5" y="475" width="16" height="16" as="geometry" />
        </mxCell>
        <mxCell id="589v4N3QRyum2xQa7Uxw-88" value="" style="whiteSpace=wrap;html=1;aspect=fixed;" vertex="1" parent="589v4N3QRyum2xQa7Uxw-1">
          <mxGeometry x="415.5" y="558" width="12" height="12" as="geometry" />
        </mxCell>
        <mxCell id="589v4N3QRyum2xQa7Uxw-89" value="" style="whiteSpace=wrap;html=1;aspect=fixed;" vertex="1" parent="589v4N3QRyum2xQa7Uxw-1">
          <mxGeometry x="415.5" y="573" width="12" height="12" as="geometry" />
        </mxCell>
        <mxCell id="589v4N3QRyum2xQa7Uxw-90" value="" style="whiteSpace=wrap;html=1;aspect=fixed;" vertex="1" parent="589v4N3QRyum2xQa7Uxw-1">
          <mxGeometry x="448" y="573" width="12" height="12" as="geometry" />
        </mxCell>
        <mxCell id="589v4N3QRyum2xQa7Uxw-91" value="" style="whiteSpace=wrap;html=1;aspect=fixed;" vertex="1" parent="589v4N3QRyum2xQa7Uxw-1">
          <mxGeometry x="448" y="558" width="12" height="12" as="geometry" />
        </mxCell>
        <mxCell id="589v4N3QRyum2xQa7Uxw-92" value="" style="whiteSpace=wrap;html=1;aspect=fixed;" vertex="1" parent="589v4N3QRyum2xQa7Uxw-1">
          <mxGeometry x="478" y="572" width="12" height="12" as="geometry" />
        </mxCell>
        <mxCell id="589v4N3QRyum2xQa7Uxw-93" value="" style="whiteSpace=wrap;html=1;aspect=fixed;" vertex="1" parent="589v4N3QRyum2xQa7Uxw-1">
          <mxGeometry x="478" y="557" width="12" height="12" as="geometry" />
        </mxCell>
        <mxCell id="589v4N3QRyum2xQa7Uxw-94" value="" style="whiteSpace=wrap;html=1;aspect=fixed;" vertex="1" parent="589v4N3QRyum2xQa7Uxw-1">
          <mxGeometry x="412" y="475" width="16" height="16" as="geometry" />
        </mxCell>
        <mxCell id="589v4N3QRyum2xQa7Uxw-95" value="" style="whiteSpace=wrap;html=1;aspect=fixed;" vertex="1" parent="589v4N3QRyum2xQa7Uxw-1">
          <mxGeometry x="380.5" y="475" width="16" height="16" as="geometry" />
        </mxCell>
        <mxCell id="589v4N3QRyum2xQa7Uxw-96" value="" style="whiteSpace=wrap;html=1;aspect=fixed;" vertex="1" parent="589v4N3QRyum2xQa7Uxw-1">
          <mxGeometry x="347" y="475" width="16" height="16" as="geometry" />
        </mxCell>
        <mxCell id="589v4N3QRyum2xQa7Uxw-97" value="" style="whiteSpace=wrap;html=1;aspect=fixed;" vertex="1" parent="589v4N3QRyum2xQa7Uxw-1">
          <mxGeometry x="443.5" y="475" width="16" height="16" as="geometry" />
        </mxCell>
        <mxCell id="589v4N3QRyum2xQa7Uxw-98" value="" style="whiteSpace=wrap;html=1;aspect=fixed;" vertex="1" parent="589v4N3QRyum2xQa7Uxw-1">
          <mxGeometry x="475.5" y="475" width="16" height="16" as="geometry" />
        </mxCell>
      </root>
    </mxGraphModel>
  </diagram>
</mxfile>
